<?xml version="1.0" encoding="UTF-8"?>
<svg id="Layer_1" data-name="Layer 1" xmlns="http://www.w3.org/2000/svg" xmlns:xlink="http://www.w3.org/1999/xlink" viewBox="0 0 1080 1080">
  <defs>
    <style>
      .cls-1 {
        fill: url(#radial-gradient-5);
      }

      .cls-2 {
        fill: url(#radial-gradient-4);
      }

      .cls-3 {
        fill: url(#radial-gradient);
      }

      .cls-4 {
        fill: url(#radial-gradient-2);
      }

      .cls-5 {
        fill: url(#radial-gradient-3);
      }
    </style>
    <radialGradient id="radial-gradient" cx="337.02" cy="539.55" fx="337.02" fy="539.55" r="172.75" gradientUnits="userSpaceOnUse">
      <stop offset="0" stop-color="#e2c89f"/>
      <stop offset="1" stop-color="#b6a47e"/>
    </radialGradient>
    <radialGradient id="radial-gradient-2" cx="388.02" cy="243.54" fx="388.02" fy="243.54" r=".59" xlink:href="#radial-gradient"/>
    <radialGradient id="radial-gradient-3" cx="534.43" cy="540" fx="534.43" fy="540" r="236.86" xlink:href="#radial-gradient"/>
    <radialGradient id="radial-gradient-4" cx="697.84" cy="539.34" fx="697.84" fy="539.34" r="183.81" xlink:href="#radial-gradient"/>
    <radialGradient id="radial-gradient-5" cx="640.64" cy="704.23" fx="640.64" fy="704.23" r="98.33" xlink:href="#radial-gradient"/>
  </defs>
  <path class="cls-3" d="m358.02,703.78s-3.1,64.54,39.36,67.77c-16.95-.1-67.64-.18-130.87,1.92,12.45-1.34,44.71-10.94,44.71-74.44v-331s0-59.77-43.55-62.39c18.28.05,75.63.15,131.39,0-11.17.8-39.83,7.97-40.36,60.36-.68,65.11-.68,158.71-.68,158.71h49.51v40.7h-49.51v138.37Z"/>
  <path class="cls-4" d="m388.86,243.57h-1.67s.62-.14,1.67,0Z"/>
  <path class="cls-5" d="m690.32,321.7l-3.59,37.74c-7.81-2.97-15.87.63-27.46,10.91-.98,63.78-1.12,145.55-1.12,145.55,0,0-24.42-.35-37.65,0-1.89.05-3.95.29-6.1.74v-99.25c-8.02,8.74-16.99,18.45-27.09,29.16-10.89,11.54-20.91,21.4-30.03,29.78,2.09,1.79,4.27,3.68,6.57,5.65v36.72s-11.14-3.78-32.24-20.56c-26.17,20.3-40.05,24.68-40.05,24.68v-36.72c5.1-4.06,9.68-7.76,13.85-11.14-9.25-8.97-19.53-19.7-30.82-32.53-6.94-7.89-13.3-15.23-19.15-22.05l-.53,42.91-.13,10.11s.11.01.16.02l.17,59.02v.61c-.23,48.51-.68,191.81,1.93,239.24,3.17,57.42,20.35,64.2,20.35,64.2h-86.37c22.61-10.39,23.52-57.42,23.52-57.42,0,0,1.72-271.9-.05-405.75-14.74-15.66-23.84-21.58-32.6-18.02l-3.35-37.73s6.44-6.97,35.2,15.67c-.23-8.45-.49-15.48-.79-20.82-3.38-61.11-18.91-68.2-24.09-68.85l86.27-.06c-18.09,7.97-18.09,47.21-18.09,47.21l-1.01,82.06c3.75,3.92,7.67,8.11,11.78,12.58,34.95,38.1,43.09,48.88,63.43,67.83,18.59-16.59,28.65-28.45,63.34-63.7,7.11-7.22,13.7-13.69,19.82-19.5v-82c0-35.94-19.67-44.48-19.67-44.48h90.89c-16.96,11.8-20.35,35.68-23.74,53.98-.75,4.04-1.35,16.96-1.83,34.64,24.51-16.25,30.27-10.43,30.27-10.43Z"/>
  <path class="cls-2" d="m809,771.12c-13.95.54-59.76,1.92-127.8.16,12.28-2.24,29.5-13.14,32.92-55.63v-151.82l-131.92-1.13s16.95-36.63,38.32-39.51h95.8l-3.9-180.25s-5.93-33.31-32.71-35.8c19.91-.41,73.17-1.21,133.78.19,0,0-47.48,4.75-49.18,50.19-1.69,45.44,0,361.18,0,361.18,0,0,.85,52.54,44.69,52.42Z"/>
  <path class="cls-1" d="m618.93,571.97s5.88,200.32-1.81,226.09c-7.69,25.77-14.92,35.27-19.44,38.44h85.91s-21.7-11.3-21.7-48.38-4.07-216.14-4.07-216.14h-38.89Z"/>
</svg>